<svg width={22} height={16} fill="none" xmlns="http://www.w3.org/2000/svg"><path opacity=".24" fillRule="evenodd" clipRule="evenodd" d="M12.9.52c-.8.3-1.13.37-1.9.37S9.9.8 9.1.52L9.03.5c-1-.36-1.6-.5-2.58-.5-2.4 0-4.6 2.28-5.5 5.06-.7 2.14-.9 3.5-.95 6.48.06 2.95 1.34 4.45 3.66 4.46 1.45 0 2.45-.64 3.37-1.78l.58-.75c.95-1.24 1.93-1.9 3.4-1.91 1.45 0 2.43.67 3.38 1.9.04.06.43.58.58.76.92 1.14 1.92 1.77 3.36 1.78 2.33-.01 3.61-1.5 3.67-4.43-.06-3-.25-4.37-.94-6.5C20.15 2.27 17.95 0 15.56 0c-1 0-1.59.14-2.6.5l-.06.02ZM8.46 2.2c.98.36 1.62.48 2.54.48.92 0 1.56-.12 2.54-.48l.07-.02c.81-.3 1.22-.4 1.94-.4 1.43 0 3.06 1.7 3.76 3.83.64 1.95.8 3.16.86 5.97-.04 2-.6 2.64-1.84 2.65-.78 0-1.31-.34-1.92-1.1l-.5-.66-.06-.06C14.6 10.77 13.16 9.8 11 9.78c-2.15.01-3.59.99-4.84 2.62l-.05.06-.5.66c-.62.76-1.15 1.1-1.94 1.1-1.23 0-1.79-.66-1.83-2.68.06-2.78.22-3.99.86-5.94.7-2.13 2.33-3.82 3.76-3.82.72 0 1.13.1 1.94.39l.07.02Zm7.12 3.59a.9.9 0 0 1-.91-.9c0-.48.4-.88.91-.88.5 0 .92.4.92.89a.9.9 0 0 1-.92.89Zm-.91 2.66c0 .5.4.9.91.9.5 0 .92-.4.92-.9a.9.9 0 0 0-.92-.88.9.9 0 0 0-.91.88Zm2.75-.88a.9.9 0 0 1-.92-.9c0-.48.41-.88.92-.88.5 0 .91.4.91.89a.9.9 0 0 1-.91.89Zm-4.59-.9c0 .5.41.9.92.9.5 0 .92-.4.92-.9a.9.9 0 0 0-.92-.88.9.9 0 0 0-.92.89ZM6.42 9.34a2.7 2.7 0 0 1-2.75-2.66A2.7 2.7 0 0 1 6.42 4a2.7 2.7 0 0 1 2.75 2.67 2.7 2.7 0 0 1-2.75 2.66Zm.91-2.66a.9.9 0 0 1-.91.89.9.9 0 0 1-.92-.9c0-.48.41-.88.92-.88.5 0 .91.4.91.89Z" fill="#000" /></svg>
